# xmcd CD database file
#
# Track frame offsets:
#	150
#	15113
#	35770
#	56257
#	69361
#	69922
#
# Disc length: 1204 seconds
#
# Revision: 0
# Processed by: cddbd v1.5.1PL0 Copyright (c) Steve Scherf et al.
# Submitted via: CDex 1.51
#
DISCID=3f04b206
DTITLE=The Incredible Rhine Rockers - Retten die Stadt
DYEAR=2004
DGENRE=Country
TTITLE0=Wunda in Monnem
TTITLE1=The Way to love
TTITLE2=Moin Monnem
TTITLE3=Louie the Breaker
TTITLE4=Stereo-Mikrofon
TTITLE5=Moin Monnem (Karaoke-Version)
EXTD=YEAR: 2004
EXTT0=
EXTT1=
EXTT2=
EXTT3=
EXTT4=
EXTT5=
PLAYORDER=
